<svg width="142" height="104" viewBox="0 0 142 104" fill="none" xmlns="http://www.w3.org/2000/svg">
<path d="M94.4799 51.7443C88.4638 51.7443 82.6466 49.0581 78.0936 44.1831C73.6663 39.4282 70.9626 33.0872 70.4856 26.3337C69.9765 19.1296 72.174 12.5048 76.6715 7.6767C81.1689 2.84858 87.4572 0.244324 94.4799 0.244324C101.453 0.244324 107.759 2.8954 112.242 7.71181C116.768 12.575 118.972 19.1881 118.463 26.3308C117.974 33.0931 115.273 39.4311 110.855 44.1802C106.313 49.0581 100.499 51.7443 94.4799 51.7443Z" fill="black"/>
<path d="M133.055 103.244H55.9077C54.6673 103.251 53.442 102.973 52.3259 102.432C51.2099 101.89 50.2329 101.1 49.4702 100.122C48.6611 99.0616 48.1024 97.832 47.8358 96.5251C47.5693 95.2182 47.6018 93.868 47.931 92.5755C50.3948 82.6822 56.4987 74.4773 65.5815 68.8504C73.643 63.8584 83.9049 61.1078 94.4799 61.1078C105.263 61.1078 115.255 63.7414 123.364 68.7304C132.467 74.3281 138.58 82.5798 141.032 92.593C141.357 93.8865 141.386 95.2367 141.116 96.5429C140.847 97.8491 140.286 99.0776 139.475 100.137C138.713 101.11 137.738 101.896 136.626 102.435C135.513 102.974 134.291 103.251 133.055 103.244Z" fill="black"/>
<path d="M39.176 52.9147C28.8789 52.9147 19.8255 43.3404 18.9857 31.5744C18.5702 25.5466 20.4487 19.9723 24.2527 15.8845C28.0157 11.8376 33.3237 9.60791 39.176 9.60791C45.0283 9.60791 50.2953 11.8493 54.0788 15.9196C57.912 20.0396 59.7847 25.6022 59.3458 31.5802C58.506 43.3433 49.4555 52.9147 39.176 52.9147Z" fill="black"/>
<path d="M58.389 62.1175C53.2419 59.601 46.5616 58.3428 39.1789 58.3428C30.5585 58.3428 22.1869 60.5901 15.6031 64.6691C8.13851 69.3011 3.11727 76.0459 1.08946 84.1893C0.792703 85.3606 0.764635 86.5839 1.00735 87.7676C1.25007 88.9513 1.75729 90.0648 2.49107 91.0248C3.18734 91.9186 4.07933 92.6408 5.09845 93.1359C6.11757 93.631 7.23667 93.8858 8.36968 93.8807H40.8498C41.398 93.8806 41.9288 93.6881 42.3496 93.3368C42.7704 92.9855 43.0546 92.4976 43.1526 91.9582C43.1848 91.7738 43.2258 91.5895 43.2726 91.4081C45.754 81.4417 51.5682 73.0203 60.1593 66.8812C60.4753 66.6535 60.7294 66.3504 60.8987 65.9996C61.068 65.6488 61.1471 65.2613 61.1288 64.8722C61.1105 64.4831 60.9954 64.1048 60.7939 63.7714C60.5924 63.4381 60.3109 63.1602 59.975 62.9631C59.5156 62.6939 58.9889 62.4101 58.389 62.1175Z" fill="black"/>
</svg>
