<svg width="101" height="101" viewBox="0 0 101 101" fill="none" xmlns="http://www.w3.org/2000/svg">
<path d="M69.2037 0.400146C52.0021 0.400146 38.0414 14.3609 38.0414 31.5625C38.0414 35.5513 39.0386 39.2908 40.4097 42.9056L4.13672 78.8046C-0.724609 83.666 -0.724609 91.8928 4.13672 96.7542C6.62971 99.2472 9.87059 100.244 13.1115 100.244C16.3524 100.244 19.5932 99.1225 22.0862 96.7542L57.9853 60.4812C61.4754 61.8523 65.2149 62.8495 69.3284 62.8495C86.53 62.8495 100.491 48.8888 100.491 31.6872C100.491 29.6928 100.491 27.6984 100.117 25.8286L88.0258 37.9196H63.0959V12.9897L75.1869 0.898744C73.3171 0.524796 71.3228 0.524796 69.3284 0.524796L69.2037 0.400146ZM13.1115 81.4223C16.6017 81.4223 19.3439 84.1646 19.3439 87.6548C19.3439 91.1449 16.6017 93.8872 13.1115 93.8872C9.62129 93.8872 6.87901 91.1449 6.87901 87.6548C6.87901 84.1646 9.62129 81.4223 13.1115 81.4223Z" fill="black"/>
</svg>
