<svg width="86" height="58" viewBox="0 0 86 58" fill="none" xmlns="http://www.w3.org/2000/svg">
<path d="M44.4181 20.95L6.33008 21.0685L3.94839 31.7999C3.39772 34.2812 3.45404 36.3163 4.11736 37.9053C4.76828 39.4943 5.88913 40.6686 7.47992 41.4282C9.07071 42.1877 10.9882 42.564 13.2323 42.5571C15.4764 42.5501 17.5512 42.1614 19.4568 41.3909C21.3624 40.6204 22.9866 39.4428 24.3296 37.8579C25.6601 36.273 26.5984 34.2503 27.1445 31.7897L29.0719 23.1054L24.906 23.1183L23.0062 31.6786C22.6299 33.3742 22.0294 34.7398 21.2049 35.7755C20.378 36.8215 19.3674 37.5789 18.1731 38.0475C16.9641 38.5265 15.5971 38.7684 14.0721 38.7731C12.5471 38.7779 11.267 38.5442 10.2319 38.0722C9.19677 37.6002 8.48513 36.843 8.09695 35.8008C7.69637 34.7585 7.68653 33.3793 8.06741 31.6631L9.56801 24.9017L43.5645 24.7959L44.4181 20.95ZM23.9904 35.9528L39.3656 43.7155L40.3568 39.2493L24.9541 31.6106L23.9904 35.9528Z" fill="#EF1A1A"/>
<path fill-rule="evenodd" clip-rule="evenodd" d="M46.1029 22.1453C47.3826 22.1467 48.2227 23.0137 47.9792 24.0818L43.6999 42.8541C43.4564 43.9222 42.2216 44.7869 40.9419 44.7856C39.6622 44.7842 38.8222 43.9172 39.0657 42.8491L43.345 24.0768C43.5885 23.0087 44.8232 22.1439 46.1029 22.1453Z" fill="#F51C1C"/>
<path fill-rule="evenodd" clip-rule="evenodd" d="M63.1534 38.0648C65.6818 37.2496 69.3619 34.4572 70.0815 26.5401L74.6341 26.1195C73.8436 34.8164 69.4963 39.7791 64.097 41.5199C61.5423 42.3436 59.0264 42.3261 57.0515 41.7733C55.1319 41.2359 53.4136 40.0912 52.9559 38.3685L57.4274 36.9466C57.5253 37.3151 58.042 37.8768 59.2092 38.2035C60.3212 38.5148 61.7442 38.5192 63.1534 38.0648Z" fill="black"/>
<path d="M59.3843 7.70213C58.4705 11.7416 52.9773 15.0163 47.1149 15.0163C41.2525 15.0163 37.2409 11.7416 38.1547 7.70213C39.0684 3.66261 44.5616 0.387939 50.424 0.387939C56.2864 0.387939 60.298 3.66261 59.3843 7.70213Z" fill="#1F1D1D" fill-opacity="0.1"/>
<path fill-rule="evenodd" clip-rule="evenodd" d="M47.9617 11.2731C52.1884 11.2731 54.5968 9.03575 54.8985 7.70213C55.2001 6.36851 53.804 4.1311 49.5773 4.1311C45.3505 4.1311 42.9422 6.36851 42.6405 7.70213C42.3388 9.03575 43.7349 11.2731 47.9617 11.2731ZM47.1149 15.0163C52.9773 15.0163 58.4705 11.7416 59.3843 7.70213C60.298 3.66261 56.2864 0.387939 50.424 0.387939C44.5616 0.387939 39.0684 3.66261 38.1547 7.70213C37.2409 11.7416 41.2526 15.0163 47.1149 15.0163Z" fill="black"/>
<path fill-rule="evenodd" clip-rule="evenodd" d="M35.6579 16.0131C38.2094 13.5201 41.8174 12.2732 46.2854 11.3846L46.5494 15.0164C42.3606 15.8494 40.2351 16.8047 38.9236 18.0861C37.5569 19.4214 36.6209 21.5423 36.0421 25.4909L31.5099 25.7397C32.1053 21.6778 33.1616 18.452 35.6579 16.0131Z" fill="black"/>
<path fill-rule="evenodd" clip-rule="evenodd" d="M61.991 23.4108L49.6599 14.4585L53.0238 11.46L65.3549 20.4122L61.991 23.4108Z" fill="black"/>
<path fill-rule="evenodd" clip-rule="evenodd" d="M43.8255 33.8691L31.5071 25.7284L34.7499 22.6459L47.0682 30.7866L43.8255 33.8691Z" fill="black"/>
<path fill-rule="evenodd" clip-rule="evenodd" d="M32.3919 42.9824L46.5147 31.5319L43.6255 29.1239L29.5027 40.5744L32.3919 42.9824Z" fill="black"/>
<path fill-rule="evenodd" clip-rule="evenodd" d="M72.1981 24.9033L43.1615 24.8236L44.0525 20.9557L73.0891 21.0354L72.1981 24.9033Z" fill="black"/>
<path d="M40.9714 40.9331L42.5731 44.2412L68.2072 31.905C70.4951 30.8039 72.2837 29.5485 73.5729 28.1386C74.8621 26.7287 75.6391 25.2418 75.9038 23.678C76.1686 22.1142 75.9178 20.5408 75.1513 18.9579C74.428 17.4638 73.4283 16.3057 72.1522 15.4834C70.8644 14.6667 69.3937 14.2451 67.74 14.2185C66.0864 14.192 64.3432 14.6197 62.5105 15.5016L64.0864 18.7564C65.102 18.2677 66.0817 18.032 67.0256 18.0492C67.9621 18.081 68.8041 18.3337 69.5516 18.8073C70.299 19.2809 70.8816 19.9491 71.2992 20.8117C71.7599 21.7632 71.8891 22.6989 71.6867 23.6186C71.4844 24.5384 70.9594 25.416 70.1117 26.2516C69.2567 27.1016 68.088 27.8834 66.6055 28.5968L40.9714 40.9331Z" fill="#FD1515"/>
<path d="M9.32139 46.7267L11.9583 46.7365L11.9176 53.8202C11.9138 54.475 11.7277 55.0431 11.3594 55.5245C10.9952 56.006 10.4899 56.3762 9.84352 56.635C9.19716 56.8939 8.44681 57.0217 7.59247 57.0185C6.83261 57.0157 6.14319 56.9056 5.52421 56.6884C4.90936 56.4678 4.42248 56.1353 4.06358 55.6908C3.7047 55.243 3.52926 54.6818 3.53725 54.0072L6.19267 54.0171C6.19934 54.285 6.26579 54.5151 6.39202 54.7074C6.52237 54.8963 6.7002 55.0425 6.92552 55.1459C7.15496 55.2459 7.42576 55.2966 7.73792 55.2977C8.06651 55.299 8.34409 55.2438 8.57064 55.1322C8.80132 55.0173 8.97685 54.8493 9.09724 54.6282C9.21763 54.407 9.27876 54.1344 9.28062 53.8103L9.32139 46.7267Z" fill="#F51C1C"/>
<path d="M20.1436 53.6822L20.1687 49.307L22.7934 49.3168L22.7495 56.9362L20.2296 56.9268L20.2376 55.5428L20.139 55.5424C19.9229 55.9881 19.5655 56.3456 19.067 56.6149C18.5725 56.8842 17.97 57.0176 17.2594 57.0149C16.6269 57.0125 16.071 56.8947 15.5918 56.6614C15.1125 56.4282 14.7386 56.0977 14.47 55.6701C14.2055 55.2425 14.0728 54.731 14.0722 54.1358L14.1001 49.2844L16.7247 49.2942L16.699 53.7686C16.7005 54.2183 16.8483 54.5744 17.1426 54.8368C17.4368 55.0991 17.8324 55.2312 18.3294 55.2331C18.6457 55.2342 18.9417 55.1775 19.2176 55.0628C19.4935 54.9447 19.7163 54.7703 19.886 54.5394C20.0599 54.3086 20.1457 54.0228 20.1436 53.6822Z" fill="black"/>
<path d="M32.7541 51.5267L30.3506 51.6368C30.3105 51.4713 30.223 51.3222 30.0882 51.1894C29.9535 51.0533 29.7754 50.9451 29.5541 50.8649C29.3369 50.7815 29.0763 50.7391 28.7723 50.738C28.3657 50.7365 28.0223 50.8047 27.7422 50.9425C27.4621 51.0771 27.3215 51.2584 27.3201 51.4866C27.3191 51.6685 27.4086 51.8226 27.5886 51.949C27.7686 52.0753 28.0781 52.1773 28.5172 52.255L30.2283 52.5392C31.1475 52.6947 31.832 52.942 32.2819 53.281C32.7318 53.62 32.9551 54.064 32.952 54.613C32.9491 55.1123 32.7638 55.5498 32.3961 55.9255C32.0325 56.3011 31.5338 56.5936 30.9 56.8029C30.2704 57.0089 29.5448 57.1103 28.7234 57.1073C27.4706 57.1026 26.4737 56.8889 25.7327 56.4661C24.9958 56.0401 24.5658 55.463 24.4426 54.735L27.0248 54.6355C27.101 54.9434 27.2886 55.1789 27.5875 55.342C27.8865 55.5019 28.27 55.5827 28.7383 55.5844C29.1983 55.5861 29.5684 55.5164 29.8485 55.3753C30.1327 55.2308 30.2776 55.0445 30.283 54.8163C30.28 54.6245 30.1803 54.467 29.9838 54.3439C29.7874 54.2175 29.484 54.1205 29.0736 54.0528L27.4363 53.7838C26.513 53.6316 25.8265 53.371 25.3768 53.0023C24.9312 52.6335 24.71 52.1647 24.7133 51.5959C24.7161 51.1065 24.8829 50.6855 25.2135 50.3328C25.5482 49.9802 26.016 49.7091 26.6168 49.5196C27.2216 49.33 27.9287 49.2368 28.7378 49.2398C29.9331 49.2442 30.8725 49.4511 31.5561 49.8604C32.2438 50.2698 32.6431 50.8252 32.7541 51.5267Z" fill="black"/>
<path d="M39.6685 49.3798L39.6594 50.9671L33.9604 50.9459L33.9695 49.3585L39.6685 49.3798ZM35.2739 47.5379L37.8985 47.5476L37.8576 54.6511C37.8565 54.8462 37.8926 54.9985 37.9659 55.1079C38.0392 55.214 38.1415 55.2888 38.2727 55.3323C38.4079 55.3758 38.5639 55.3978 38.7405 55.3985C38.8637 55.399 38.987 55.3912 39.1103 55.3751C39.2337 55.3557 39.3282 55.3412 39.394 55.3315L39.7977 56.9055C39.6661 56.9381 39.4811 56.9754 39.2426 57.0175C39.0041 57.063 38.7144 57.09 38.3734 57.0986C37.7407 57.1161 37.1866 57.0463 36.7111 56.889C36.2396 56.7319 35.8734 56.4891 35.6124 56.1607C35.3514 55.8323 35.2244 55.4185 35.2314 54.9191L35.2739 47.5379Z" fill="black"/>
<path d="M41.3837 57.0057L41.4421 46.8465L46.4203 46.8651C47.3732 46.8687 48.1857 47.0089 48.8577 47.2859C49.5339 47.5596 50.0471 47.9468 50.3975 48.4475C50.752 48.9449 50.9273 49.5292 50.9234 50.2006C50.9195 50.8752 50.7355 51.4549 50.3712 51.9397C50.007 52.4212 49.4812 52.7896 48.7938 53.045C48.1104 53.3004 47.2841 53.4263 46.3148 53.4227L42.9816 53.4102L42.9916 51.684L45.8934 51.6948C46.4027 51.6967 46.8261 51.6421 47.1636 51.5309C47.501 51.4197 47.7526 51.252 47.9181 51.0277C48.0878 50.8035 48.1737 50.5243 48.1756 50.1903C48.1775 49.853 48.095 49.5683 47.9279 49.3362C47.7649 49.1041 47.5133 48.9279 47.1731 48.8075C46.837 48.6839 46.4122 48.6211 45.8988 48.6192L44.0998 48.6125L44.0514 57.0156L41.3837 57.0057ZM48.2244 52.4079L51.3338 57.0428L48.3888 57.0318L45.3472 52.3972L48.2244 52.4079Z" fill="#F51C1C"/>
<path d="M52.72 57.048L52.7639 49.4286L55.3885 49.4384L55.3447 57.0578L52.72 57.048ZM54.088 48.4514C53.6978 48.4499 53.3637 48.3445 53.0856 48.1351C52.8116 47.9224 52.6754 47.6689 52.6771 47.3746C52.6788 47.0836 52.8178 46.8344 53.0942 46.6271C53.3748 46.4165 53.7101 46.3119 54.1003 46.3134C54.4905 46.3148 54.8226 46.4219 55.0966 46.6346C55.3747 46.844 55.5129 47.0942 55.5112 47.3852C55.5095 47.6795 55.3684 47.932 55.0879 48.1426C54.8115 48.3499 54.4782 48.4528 54.088 48.4514Z" fill="black"/>
<path d="M60.9336 57.2026C60.2148 57.2 59.5646 57.0487 58.9831 56.7489C58.4057 56.4458 57.9482 56.0026 57.6106 55.4193C57.2772 54.8327 57.1129 54.1145 57.1178 53.2646C57.1228 52.3915 57.3016 51.6663 57.654 51.0888C58.0065 50.5081 58.4732 50.075 59.054 49.7894C59.6389 49.5006 60.2784 49.3574 60.9726 49.36C61.5024 49.362 61.9435 49.4364 62.2959 49.5832C62.6525 49.7268 62.9389 49.9064 63.1554 50.1222C63.376 50.3347 63.5432 50.5436 63.657 50.7491L63.7371 50.7494L63.7591 46.9298L66.3775 46.9396L66.3191 57.0987L63.7314 57.0891L63.7384 55.8688L63.6275 55.8684C63.5031 56.0796 63.3273 56.2889 63.1002 56.4964C62.8772 56.7006 62.5867 56.8698 62.2286 57.0041C61.8746 57.1384 61.4429 57.2045 60.9336 57.2026ZM61.775 55.5241C62.1981 55.5257 62.5559 55.4344 62.8486 55.2503C63.1454 55.0629 63.3729 54.8009 63.5309 54.4641C63.693 54.1274 63.7754 53.7325 63.778 53.2795C63.7806 52.8264 63.7048 52.4326 63.5507 52.098C63.3965 51.7634 63.1721 51.5046 62.8774 51.3216C62.5827 51.1386 62.2238 51.0464 61.8008 51.0448C61.3695 51.0432 61.0055 51.1361 60.7086 51.3235C60.4118 51.5109 60.1865 51.7713 60.0326 52.1047C59.8787 52.4382 59.8005 52.8248 59.7979 53.2646C59.7954 53.7078 59.8691 54.0999 60.0191 54.4411C60.1733 54.779 60.3956 55.0444 60.6861 55.2373C60.9808 55.4269 61.3437 55.5225 61.775 55.5241Z" fill="black"/>
<path d="M72.7889 57.2717C71.8154 57.268 70.9784 57.1062 70.2779 56.7861C69.5815 56.4627 69.046 56.0076 68.6715 55.4209C68.297 54.8308 68.1121 54.134 68.1167 53.3304C68.1212 52.5466 68.3141 51.8595 68.6954 51.2689C69.0767 50.6784 69.6113 50.219 70.2991 49.8909C70.991 49.5628 71.8012 49.4004 72.7294 49.4039C73.3537 49.4062 73.9345 49.4894 74.4716 49.6535C75.0129 49.8142 75.4838 50.0557 75.8845 50.378C76.2893 50.7003 76.6032 51.105 76.8264 51.5919C77.0495 52.0756 77.1592 52.6415 77.1554 53.2897L77.1521 53.8701L69.1612 53.8403L69.1687 52.5307L74.6891 52.5513C74.6908 52.247 74.6102 51.9772 74.4473 51.7418C74.2843 51.5064 74.0574 51.322 73.7666 51.1886C73.4798 51.052 73.1455 50.9829 72.7635 50.9815C72.3651 50.98 72.0114 51.0531 71.7025 51.2008C71.3977 51.3451 71.1583 51.541 70.9844 51.7884C70.8105 52.0325 70.7206 52.305 70.7148 52.6059L70.7076 53.851C70.7054 54.228 70.7898 54.5541 70.9607 54.8292C71.1358 55.1043 71.3831 55.3169 71.7026 55.4669C72.0221 55.6169 72.4016 55.6928 72.8411 55.6944C73.1327 55.6955 73.3999 55.6634 73.6426 55.5982C73.8853 55.5329 74.0933 55.4345 74.2666 55.3029C74.4398 55.1712 74.5722 55.0097 74.6637 54.8182L77.0904 54.9562C76.9645 55.4254 76.7095 55.8345 76.3255 56.1836C75.9456 56.5294 75.4553 56.7988 74.8545 56.9917C74.2578 57.1813 73.5693 57.2746 72.7889 57.2717Z" fill="black"/>
<path d="M35.2462 49.3839H38.1451V50.9686H35.2462V49.3839Z" fill="black"/>
<path d="M42.7333 51.2498H44.0608V54.3162H42.7333V51.2498Z" fill="#F51C1C"/>
<path d="M45.3773 51.7548H48.681V53.4064H45.3773V51.7548Z" fill="#F51C1C"/>
<path d="M69.1546 52.1465H70.6877V54.3162H69.1546V52.1465Z" fill="black"/>
</svg>
