<svg width="307" height="583" viewBox="0 0 307 583" fill="none" xmlns="http://www.w3.org/2000/svg">
<path d="M249.963 79.7411L305.809 73.703L306 581.634H23.5638L31.8651 553.67V523.208L23.5638 496.483L12.2438 443.489L4.69716 385.38V292.556L16.7718 223.127L1.38538 182.98V120.964L12.2438 62.3836L25.0732 28.4237L38.6571 7.29304L67.3344 2.00977L93.7477 13.3304L130.726 47.2901L156.385 79.7411L195.654 69.9132L224.778 73.703L249.963 79.7411Z" fill="black" stroke="black" stroke-width="2"/>
<path d="M166.741 247.967L128.367 255.847L132.479 266.468L140.702 277.775L159.204 289.767L179.761 291.823L202.717 287.369L200.319 277.775L182.845 255.847L174.622 247.967H166.741Z" stroke="#FFFDFD" stroke-width="11"/>
<path d="M306 384.436H265.913L255.634 388.89L245.698 406.021V426.579L258.032 443.367L282.359 461.527L296.407 466.666V484.14H277.905L229.252 488.937H212.806L188.137 473.176L176.145 464.61" stroke="white" stroke-width="9"/>
</svg>
